<svg width="1280" height="720" xmlns="http://www.w3.org/2000/svg" xmlns:xlink="http://www.w3.org/1999/xlink" overflow="hidden"><g><rect x="0" y="0" width="1280" height="720" fill="#FFFFFF"/><path d="M77.5001 111.5 118.5 111.5 118.5 148.011 106.011 160.5 77.5001 160.5Z" fill="#FFFFFF" fill-rule="evenodd"/><path d="M106.011 160.5 108.509 150.509 118.5 148.011Z" fill="#CDCDCD" fill-rule="evenodd"/><path d="M106.011 160.5 108.509 150.509 118.5 148.011 106.011 160.5 77.5001 160.5 77.5001 111.5 118.5 111.5 118.5 148.011" stroke="#172C51" stroke-width="3" stroke-miterlimit="8" fill="none" fill-rule="evenodd"/><path d="M68.5001 100.5 109.5 100.5 109.5 137.011 97.0114 149.5 68.5001 149.5Z" fill="#FFFFFF" fill-rule="evenodd"/><path d="M97.0114 149.5 99.5092 139.509 109.5 137.011Z" fill="#CDCDCD" fill-rule="evenodd"/><path d="M97.0114 149.5 99.5092 139.509 109.5 137.011 97.0114 149.5 68.5001 149.5 68.5001 100.5 109.5 100.5 109.5 137.011" stroke="#172C51" stroke-width="3" stroke-miterlimit="8" fill="none" fill-rule="evenodd"/><path d="M60.5001 89.5001 101.5 89.5001 101.5 126.011 89.0114 138.5 60.5001 138.5Z" fill="#FFFFFF" fill-rule="evenodd"/><path d="M89.0114 138.5 91.5092 128.509 101.5 126.011Z" fill="#CDCDCD" fill-rule="evenodd"/><path d="M89.0114 138.5 91.5092 128.509 101.5 126.011 89.0114 138.5 60.5001 138.5 60.5001 89.5001 101.5 89.5001 101.5 126.011" stroke="#172C51" stroke-width="3" stroke-miterlimit="8" fill="none" fill-rule="evenodd"/><path d="M193 100.834C193 94.2981 198.298 89 204.834 89L280.166 89C286.702 89 292 94.2981 292 100.834L292 148.166C292 154.702 286.702 160 280.166 160L204.834 160C198.298 160 193 154.702 193 148.166Z" fill="#4472C4" fill-rule="evenodd"/><text fill="#FFFFFF" font-family="Yu Gothic,Yu Gothic_MSFontService,sans-serif" font-weight="700" font-size="16" transform="translate(226.087 120)">50m</text><text fill="#FFFFFF" font-family="Yu Gothic,Yu Gothic_MSFontService,sans-serif" font-weight="700" font-size="16" transform="translate(206.667 139)">Map2npy</text><path d="M384.5 123.5 425.5 123.5 425.5 159.011 413.011 171.5 384.5 171.5Z" fill="#FFFFFF" fill-rule="evenodd"/><path d="M413.011 171.5 415.509 161.509 425.5 159.011Z" fill="#CDCDCD" fill-rule="evenodd"/><path d="M413.011 171.5 415.509 161.509 425.5 159.011 413.011 171.5 384.5 171.5 384.5 123.5 425.5 123.5 425.5 159.011" stroke="#172C51" stroke-width="3" stroke-miterlimit="8" fill="none" fill-rule="evenodd"/><path d="M376.5 111.5 417.5 111.5 417.5 148.011 405.011 160.5 376.5 160.5Z" fill="#FFFFFF" fill-rule="evenodd"/><path d="M405.011 160.5 407.509 150.509 417.5 148.011Z" fill="#CDCDCD" fill-rule="evenodd"/><path d="M405.011 160.5 407.509 150.509 417.5 148.011 405.011 160.5 376.5 160.5 376.5 111.5 417.5 111.5 417.5 148.011" stroke="#172C51" stroke-width="3" stroke-miterlimit="8" fill="none" fill-rule="evenodd"/><path d="M367.5 100.5 408.5 100.5 408.5 137.011 396.011 149.5 367.5 149.5Z" fill="#FFFFFF" fill-rule="evenodd"/><path d="M396.011 149.5 398.509 139.509 408.5 137.011Z" fill="#CDCDCD" fill-rule="evenodd"/><path d="M396.011 149.5 398.509 139.509 408.5 137.011 396.011 149.5 367.5 149.5 367.5 100.5 408.5 100.5 408.5 137.011" stroke="#172C51" stroke-width="3" stroke-miterlimit="8" fill="none" fill-rule="evenodd"/><path d="M384.5 235.5 425.5 235.5 425.5 271.011 413.011 283.5 384.5 283.5Z" fill="#FFFFFF" fill-rule="evenodd"/><path d="M413.011 283.5 415.509 273.509 425.5 271.011Z" fill="#CDCDCD" fill-rule="evenodd"/><path d="M413.011 283.5 415.509 273.509 425.5 271.011 413.011 283.5 384.5 283.5 384.5 235.5 425.5 235.5 425.5 271.011" stroke="#172C51" stroke-width="3" stroke-miterlimit="8" fill="none" fill-rule="evenodd"/><path d="M376.5 223.5 417.5 223.5 417.5 260.011 405.011 272.5 376.5 272.5Z" fill="#FFFFFF" fill-rule="evenodd"/><path d="M405.011 272.5 407.509 262.509 417.5 260.011Z" fill="#CDCDCD" fill-rule="evenodd"/><path d="M405.011 272.5 407.509 262.509 417.5 260.011 405.011 272.5 376.5 272.5 376.5 223.5 417.5 223.5 417.5 260.011" stroke="#172C51" stroke-width="3" stroke-miterlimit="8" fill="none" fill-rule="evenodd"/><path d="M367.5 212.5 408.5 212.5 408.5 249.011 396.011 261.5 367.5 261.5Z" fill="#FFFFFF" fill-rule="evenodd"/><path d="M396.011 261.5 398.509 251.509 408.5 249.011Z" fill="#CDCDCD" fill-rule="evenodd"/><path d="M396.011 261.5 398.509 251.509 408.5 249.011 396.011 261.5 367.5 261.5 367.5 212.5 408.5 212.5 408.5 249.011" stroke="#172C51" stroke-width="3" stroke-miterlimit="8" fill="none" fill-rule="evenodd"/><path d="M384.5 560.5 425.5 560.5 425.5 596.011 413.011 608.5 384.5 608.5Z" fill="#FFFFFF" fill-rule="evenodd"/><path d="M413.011 608.5 415.509 598.509 425.5 596.011Z" fill="#CDCDCD" fill-rule="evenodd"/><path d="M413.011 608.5 415.509 598.509 425.5 596.011 413.011 608.5 384.5 608.5 384.5 560.5 425.5 560.5 425.5 596.011" stroke="#172C51" stroke-width="3" stroke-miterlimit="8" fill="none" fill-rule="evenodd"/><path d="M376.5 549.5 417.5 549.5 417.5 585.011 405.011 597.5 376.5 597.5Z" fill="#FFFFFF" fill-rule="evenodd"/><path d="M405.011 597.5 407.509 587.509 417.5 585.011Z" fill="#CDCDCD" fill-rule="evenodd"/><path d="M405.011 597.5 407.509 587.509 417.5 585.011 405.011 597.5 376.5 597.5 376.5 549.5 417.5 549.5 417.5 585.011" stroke="#172C51" stroke-width="3" stroke-miterlimit="8" fill="none" fill-rule="evenodd"/><path d="M367.5 537.5 408.5 537.5 408.5 574.011 396.011 586.5 367.5 586.5Z" fill="#FFFFFF" fill-rule="evenodd"/><path d="M396.011 586.5 398.509 576.509 408.5 574.011Z" fill="#CDCDCD" fill-rule="evenodd"/><path d="M396.011 586.5 398.509 576.509 408.5 574.011 396.011 586.5 367.5 586.5 367.5 537.5 408.5 537.5 408.5 574.011" stroke="#172C51" stroke-width="3" stroke-miterlimit="8" fill="none" fill-rule="evenodd"/><text font-family="Yu Gothic,Yu Gothic_MSFontService,sans-serif" font-weight="700" font-size="16" transform="translate(61.571 71)">******</text><text font-family="Yu Gothic,Yu Gothic_MSFontService,sans-serif" font-weight="700" font-size="16" transform="translate(110.571 71)">.MEM</text><text font-family="Yu Gothic,Yu Gothic_MSFontService,sans-serif" font-weight="700" font-size="16" transform="translate(368.927 88)">******</text><text font-family="Yu Gothic,Yu Gothic_MSFontService,sans-serif" font-weight="700" font-size="16" transform="translate(417.927 88)">.npy</text><text font-family="Yu Gothic,Yu Gothic_MSFontService,sans-serif" font-weight="700" font-size="16" transform="translate(368.927 205)">******</text><text font-family="Yu Gothic,Yu Gothic_MSFontService,sans-serif" font-weight="700" font-size="16" transform="translate(417.927 205)">.png</text><text font-family="Yu Gothic,Yu Gothic_MSFontService,sans-serif" font-weight="700" font-size="16" transform="translate(368.927 522)">******</text><text font-family="Yu Gothic,Yu Gothic_MSFontService,sans-serif" font-weight="700" font-size="16" transform="translate(417.927 522)">_pos.npy</text><path d="M508 549.834C508 543.298 513.298 538 519.834 538L595.166 538C601.702 538 607 543.298 607 549.834L607 597.166C607 603.702 601.702 609 595.166 609L519.834 609C513.298 609 508 603.702 508 597.166Z" fill="#4472C4" fill-rule="evenodd"/><text fill="#FFFFFF" font-family="Yu Gothic,Yu Gothic_MSFontService,sans-serif" font-weight="700" font-size="16" transform="translate(524.303 559)">50mMap</text><text fill="#FFFFFF" font-family="Yu Gothic,Yu Gothic_MSFontService,sans-serif" font-weight="700" font-size="16" transform="translate(531.969 578)">collect</text><text fill="#FFFFFF" font-family="Yu Gothic,Yu Gothic_MSFontService,sans-serif" font-weight="700" font-size="16" transform="translate(543.969 597)">pos</text><path d="M666.5 549.5 707.5 549.5 707.5 585.011 695.011 597.5 666.5 597.5Z" fill="#FFFFFF" fill-rule="evenodd"/><path d="M695.011 597.5 697.509 587.509 707.5 585.011Z" fill="#CDCDCD" fill-rule="evenodd"/><path d="M695.011 597.5 697.509 587.509 707.5 585.011 695.011 597.5 666.5 597.5 666.5 549.5 707.5 549.5 707.5 585.011" stroke="#172C51" stroke-width="3" stroke-miterlimit="8" fill="none" fill-rule="evenodd"/><text font-family="Yu Gothic,Yu Gothic_MSFontService,sans-serif" font-weight="700" font-size="16" transform="translate(443.066 135)">標高データ</text><text font-family="Yu Gothic,Yu Gothic_MSFontService,sans-serif" font-weight="700" font-size="16" transform="translate(443.066 154)">使</text><text font-family="Yu Gothic,Yu Gothic_MSFontService,sans-serif" font-weight="700" font-size="16" transform="translate(459.066 154)">わない</text><text font-family="Yu Gothic,Yu Gothic_MSFontService,sans-serif" font-weight="700" font-size="16" transform="translate(507.066 154)">･･･</text><path d="M113.001 122 120.422 122.002 127.611 122.007 134.334 122.016 140.357 122.027 145.449 122.039 149.375 122.054 150.831 122.061 151.913 122.069 152.606 122.077 152.857 122.086 153.085 122.094 153.039 122.093 153.704 122.101 153.695 122.101 154.769 122.108 156.217 122.116 160.138 122.13 165.226 122.143 171.247 122.154 177.967 122.162 182.576 122.165 182.573 126.165 177.962 126.162 171.24 126.154 165.216 126.143 160.123 126.13 156.196 126.116 154.74 126.108 153.662 126.101 152.969 126.092 152.718 126.084 152.489 126.076 152.535 126.077 151.87 126.069 151.879 126.069 150.81 126.061 149.361 126.054 145.439 126.039 140.35 126.027 134.329 126.016 127.608 126.007 120.421 126.002 112.999 126ZM180.577 118.164 192.574 124.17 180.572 130.164Z" fill="#4472C4"/><path d="M5.8354e-08-2 7.02789-2 13.835-2 20.2006-1.99999 25.9038-1.99999 30.724-1.99997 34.4403-1.99996 35.8155-1.99994 36.832-1.99993 37.4621-1.99991 37.6784-1.99989 37.8944-1.99989 38.5245-1.99989 39.541-1.99989 40.9162-1.99989 44.6325-1.99989 49.4527-1.99989 55.1559-1.99989 61.5215-1.99989 65.3564-1.99989 65.3564 2.0001 61.5215 2.0001 55.1559 2.0001 49.4527 2.0001 44.6325 2.0001 40.9162 2.0001 39.541 2.0001 38.5245 2.0001 37.8944 2.0001 37.678 2.0001 37.462 2.00009 36.8319 2.00007 35.8154 2.00006 34.4402 2.00004 30.7239 2.00003 25.9038 2.00001 20.2005 2.00001 13.835 2 7.02789 2-5.8354e-08 2ZM63.3564-5.99989 75.3564 0.000104987 63.3564 6.0001Z" fill="#4472C4" transform="matrix(1 0 0 -1 292 124)"/><path d="M292.181 123.008 295.879 123.345 299.692 124.365 303.398 125.99 306.973 128.164 310.397 130.835 313.651 133.956 316.714 137.485 319.586 141.412 324.533 150.112 328.34 159.805 329.763 164.974 330.808 170.239 331.457 175.595 331.677 180.918 331.893 186.161 331.88 186.003 332.51 191.205 332.486 191.056 333.503 196.176 333.469 196.035 334.844 201.032 334.778 200.831 338.494 210.292 338.371 210.035 343.191 218.511 343.067 218.319 345.822 222.086 345.718 221.956 348.666 225.353 348.54 225.221 351.654 228.208 351.5 228.074 354.751 230.61 354.367 230.375 358.612 232.356 356.92 235.98 352.47 233.904 348.959 231.165 345.705 228.044 342.643 224.514 339.771 220.588 334.823 211.888 331.016 202.195 329.593 197.026 328.548 191.761 327.899 186.405 327.68 181.082 327.464 175.839 327.477 175.997 326.846 170.795 326.87 170.944 325.854 165.824 325.887 165.965 324.512 160.968 324.579 161.169 320.862 151.708 320.985 151.965 316.165 143.489 316.289 143.681 313.534 139.914 313.638 140.044 310.69 136.647 310.816 136.779 307.702 133.792 307.857 133.926 304.605 131.39 304.796 131.521 301.434 129.478 301.67 129.6 298.225 128.089 298.511 128.19 295.011 127.253 295.346 127.313 291.819 126.992ZM357.547 227.847 367.356 237 354.148 239.356Z" fill="#4472C4"/><path d="M292.353 123.031 294.428 123.404 296.671 124.597 298.723 126.394 300.645 128.726 302.485 131.572 304.268 134.921 306.009 138.763 307.711 143.086 309.376 147.874 311.005 153.111 312.595 158.78 314.144 164.863 315.649 171.341 317.11 178.202 319.875 192.953 322.417 208.984 324.709 226.13 326.724 244.233 328.434 263.134 329.812 282.675 330.83 302.695 331.462 323.037 331.678 343.519 331.894 363.98 331.893 363.939 332.524 384.241 332.522 384.201 333.538 404.182 333.536 404.143 334.911 423.644 334.908 423.605 336.614 442.465 336.61 442.424 338.62 460.485 338.615 460.441 340.901 477.541 340.894 477.493 343.428 493.473 343.419 493.417 346.174 508.117 346.164 508.069 347.616 514.888 347.608 514.852 349.104 521.291 349.094 521.25 350.632 527.289 350.62 527.243 352.195 532.861 352.18 532.808 353.79 537.986 353.769 537.923 355.411 542.642 355.382 542.566 357.051 546.804 357.012 546.712 358.706 550.45 358.505 550.105 361.506 554.263 358.263 556.604 355.145 552.283 353.348 548.317 351.646 543.994 349.98 539.206 348.352 533.969 346.762 528.3 345.213 522.217 343.707 515.739 342.247 508.878 339.482 494.127 336.939 478.095 334.647 460.949 332.633 442.846 330.923 423.945 329.545 404.405 328.526 384.384 327.895 364.043 327.678 343.561 327.462 323.099 327.463 323.14 326.833 302.839 326.835 302.879 325.818 282.897 325.82 282.936 324.445 263.435 324.448 263.475 322.742 244.614 322.746 244.655 320.736 226.595 320.742 226.638 318.456 209.538 318.463 209.587 315.929 193.607 315.938 193.662 313.183 178.963 313.193 179.011 311.741 172.192 311.749 172.228 310.253 165.789 310.262 165.83 308.725 159.79 308.737 159.837 307.161 154.218 307.177 154.272 305.567 149.093 305.588 149.156 303.946 144.438 303.974 144.514 302.305 140.275 302.344 140.368 300.651 136.629 300.708 136.744 298.994 133.526 299.079 133.672 297.348 130.994 297.484 131.18 295.74 129.063 295.965 129.296 294.21 127.758 294.589 128.02 292.827 127.083 293.412 127.285 291.647 126.969ZM362.378 549.621 367.356 562.08 354.403 558.587Z" fill="#4472C4"/><text font-family="Yu Gothic,Yu Gothic_MSFontService,sans-serif" font-weight="700" font-size="16" transform="translate(368.927 308)">標高画像</text><path d="M417.001 571 425.564 571.004 433.86 571.014 441.618 571.03 448.57 571.051 454.445 571.075 456.897 571.088 458.979 571.102 460.662 571.117 461.911 571.132 462.724 571.148 463.025 571.165 463.289 571.18 463.213 571.177 463.981 571.192 463.966 571.192 465.204 571.207 465.198 571.207 466.874 571.221 468.949 571.235 471.396 571.248 477.266 571.273 484.213 571.293 491.968 571.309 498.824 571.317 498.82 575.317 491.96 575.309 484.201 575.293 477.25 575.273 471.374 575.248 468.922 575.235 466.839 575.221 465.16 575.206 463.911 575.191 463.097 575.176 462.796 575.158 462.533 575.143 462.608 575.146 461.841 575.131 461.856 575.131 460.617 575.117 460.624 575.117 458.952 575.102 456.875 575.088 454.429 575.075 448.558 575.05 441.61 575.03 433.855 575.014 425.563 575.004 416.999 575ZM496.826 567.315 508.822 573.323 496.818 579.315Z" fill="#4472C4"/><path d="M0.0025877-2 10.7401-1.98611 15.6844-1.97015 20.1136-1.94947 23.8583-1.92498 26.7547-1.89758 28.6473-1.86783 29.3341-1.83633 29.9911-1.80617 29.9308-1.80803 31.787-1.77883 31.7745-1.77899 34.6588-1.75169 38.3939-1.72728 42.8165-1.70664 48.4903-1.6918 48.4798 2.30819 42.7979 2.29332 38.3678 2.27263 34.6209 2.24813 31.7304 2.22078 29.8377 2.19101 29.1509 2.15947 28.4941 2.12935 28.5543 2.13121 26.6981 2.10202 26.7106 2.10218 23.8322 2.07493 20.0949 2.05049 15.6714 2.02983 10.7349 2.01389-0.0025877 2ZM46.494-5.69479 58.485 0.32315 46.4761 6.30519Z" fill="#4472C4" transform="matrix(1 0 0 -1 607 573.323)"/><text font-family="Yu Gothic,Yu Gothic_MSFontService,sans-serif" font-weight="700" font-size="16" transform="translate(642.05 533)">layout.npy</text><text font-family="Yu Gothic,Yu Gothic_MSFontService,sans-serif" font-weight="700" font-size="16" transform="translate(651.159 623)">メッシュ</text><text font-family="Yu Gothic,Yu Gothic_MSFontService,sans-serif" font-weight="700" font-size="16" transform="translate(651.159 642)">の並び情報</text><text font-family="Yu Gothic,Yu Gothic_MSFontService,sans-serif" font-weight="700" font-size="16" transform="translate(430.222 545)">各</text><text font-family="Yu Gothic,Yu Gothic_MSFontService,sans-serif" font-weight="700" font-size="16" transform="translate(446.222 545)">MEM</text><text font-family="Yu Gothic,Yu Gothic_MSFontService,sans-serif" font-weight="700" font-size="16" transform="translate(486.889 545)">の</text><text font-family="Yu Gothic,Yu Gothic_MSFontService,sans-serif" font-weight="700" font-size="16" transform="translate(430.222 564)">緯度経度</text><path d="M773 548.834C773 542.298 778.298 537 784.834 537L860.166 537C866.702 537 872 542.298 872 548.834L872 596.166C872 602.702 866.702 608 860.166 608L784.834 608C778.298 608 773 602.702 773 596.166Z" fill="#4472C4" fill-rule="evenodd"/><text fill="#FFFFFF" font-family="Yu Gothic,Yu Gothic_MSFontService,sans-serif" font-weight="700" font-size="16" transform="translate(789.298 559)">50mMap</text><text fill="#FFFFFF" font-family="Yu Gothic,Yu Gothic_MSFontService,sans-serif" font-weight="700" font-size="16" transform="translate(798.298 578)">create</text><text fill="#FFFFFF" font-family="Yu Gothic,Yu Gothic_MSFontService,sans-serif" font-weight="700" font-size="16" transform="translate(798.964 597)">layout</text><path d="M707 571 713.224 571.001 719.254 571.005 724.892 571.01 729.944 571.016 734.214 571.024 737.507 571.033 739.633 571.043 740.212 571.048 740.42 571.053 740.612 571.058 740.578 571.058 741.136 571.063 741.127 571.063 743.245 571.072 746.533 571.081 750.8 571.089 755.85 571.096 761.487 571.101 763.738 571.102 763.737 575.102 761.483 575.101 755.845 575.096 750.793 575.089 746.522 575.081 743.227 575.072 741.105 575.063 740.526 575.057 740.317 575.052 740.126 575.047 740.16 575.048 739.602 575.043 739.61 575.043 737.496 575.033 734.206 575.024 729.938 575.016 724.888 575.01 719.251 575.005 713.224 575.001 707 575ZM761.74 567.101 773.737 573.106 761.735 579.101Z" fill="#4472C4"/><path d="M929.5 549.5 970.5 549.5 970.5 585.011 958.011 597.5 929.5 597.5Z" fill="#FFFFFF" fill-rule="evenodd"/><path d="M958.011 597.5 960.509 587.509 970.5 585.011Z" fill="#CDCDCD" fill-rule="evenodd"/><path d="M958.011 597.5 960.509 587.509 970.5 585.011 958.011 597.5 929.5 597.5 929.5 549.5 970.5 549.5 970.5 585.011" stroke="#172C51" stroke-width="3" stroke-miterlimit="8" fill="none" fill-rule="evenodd"/><path d="M0.000868181-2 10.4384-1.99547 15.2421-1.99027 19.5458-1.98351 23.1836-1.97552 25.9892-1.96659 27.808-1.95697 28.4566-1.94695 29.095-1.93712 29.0747-1.93733 30.8791-1.92781 33.6786-1.91893 37.3131-1.91095 41.6146-1.90421 46.8531-1.89967 46.8496 2.10033 41.6083 2.09578 37.3043 2.08904 33.6659 2.08105 30.858 2.07213 29.0435 2.06256 28.3948 2.05257 27.7564 2.0427 27.7767 2.04292 25.9765 2.03339 23.1748 2.02447 19.5395 2.01648 15.2378 2.00973 10.4367 2.00453-0.000868181 2ZM44.8544-5.90071 56.8513 0.105512 44.8482 6.09929Z" fill="#4472C4" transform="matrix(1 0 0 -1 872 573.106)"/><text font-family="Yu Gothic,Yu Gothic_MSFontService,sans-serif" font-weight="700" font-size="16" transform="translate(908.461 533)">layout.png</text><path d="M494 224.834C494 218.298 499.298 213 505.834 213L581.166 213C587.702 213 593 218.298 593 224.834L593 272.166C593 278.702 587.702 284 581.166 284L505.834 284C499.298 284 494 278.702 494 272.166Z" fill="#4472C4" fill-rule="evenodd"/><text fill="#FFFFFF" font-family="Yu Gothic,Yu Gothic_MSFontService,sans-serif" font-weight="700" font-size="16" transform="translate(523.426 235)">imgH</text><text fill="#FFFFFF" font-family="Yu Gothic,Yu Gothic_MSFontService,sans-serif" font-weight="700" font-size="16" transform="translate(517.672 254)">concat</text><text fill="#FFFFFF" font-family="Yu Gothic,Yu Gothic_MSFontService,sans-serif" font-weight="700" font-size="16" transform="translate(519.926 273)">16bpp</text><path d="M523.5 333.5 564.5 333.5 564.5 369.011 552.011 381.5 523.5 381.5Z" fill="#FFFFFF" fill-rule="evenodd"/><path d="M552.011 381.5 554.509 371.509 564.5 369.011Z" fill="#CDCDCD" fill-rule="evenodd"/><path d="M552.011 381.5 554.509 371.509 564.5 369.011 552.011 381.5 523.5 381.5 523.5 333.5 564.5 333.5 564.5 369.011" stroke="#172C51" stroke-width="3" stroke-miterlimit="8" fill="none" fill-rule="evenodd"/><text font-family="Yu Gothic,Yu Gothic_MSFontService,sans-serif" font-weight="700" font-size="16" transform="translate(526.864 401)">0.png</text><path d="M542 332.641 542 323.711 542 319.602 542 315.921 542 312.809 542 310.411 542 308.867 542 308.32 542 307.774 542 306.231 542 303.832 542 300.72 542 297.039 542 294 546 294 546 297.039 546 300.72 546 303.832 546 306.231 546 307.774 546 308.321 546 308.867 546 310.411 546 312.809 546 315.921 546 319.602 546 323.711 546 332.641ZM538 296 544 284 550 296Z" fill="#4472C4"/><path d="M417.003 246 424.256 246.01 431.287 246.037 437.862 246.079 443.757 246.134 448.742 246.199 452.591 246.272 454.029 246.311 455.112 246.352 455.904 246.4 456.242 246.461 456.465 246.501 456.233 246.473 456.883 246.513 456.836 246.511 457.885 246.55 457.864 246.549 459.283 246.588 459.267 246.587 463.103 246.66 463.091 246.66 468.066 246.725 468.058 246.725 473.944 246.78 480.509 246.822 480.502 246.822 484.781 246.835 484.768 250.835 480.486 250.822 473.907 250.779 468.017 250.724 463.033 250.659 459.183 250.587 457.745 250.548 456.662 250.507 455.871 250.459 455.533 250.398 455.31 250.357 455.542 250.385 454.891 250.346 454.939 250.348 453.89 250.309 453.911 250.309 452.491 250.271 452.508 250.271 448.672 250.199 448.684 250.199 443.709 250.134 443.716 250.134 437.836 250.079 431.271 250.037 424.251 250.01 416.997 250ZM482.789 242.831 494.775 248.859 482.761 254.831Z" fill="#4472C4"/><path d="M664.5 247.5 705.5 247.5 705.5 283.011 693.011 295.5 664.5 295.5Z" fill="#FFFFFF" fill-rule="evenodd"/><path d="M693.011 295.5 695.509 285.509 705.5 283.011Z" fill="#CDCDCD" fill-rule="evenodd"/><path d="M693.011 295.5 695.509 285.509 705.5 283.011 693.011 295.5 664.5 295.5 664.5 247.5 705.5 247.5 705.5 283.011" stroke="#172C51" stroke-width="3" stroke-miterlimit="8" fill="none" fill-rule="evenodd"/><path d="M656.5 236.5 697.5 236.5 697.5 272.011 685.011 284.5 656.5 284.5Z" fill="#FFFFFF" fill-rule="evenodd"/><path d="M685.011 284.5 687.509 274.509 697.5 272.011Z" fill="#CDCDCD" fill-rule="evenodd"/><path d="M685.011 284.5 687.509 274.509 697.5 272.011 685.011 284.5 656.5 284.5 656.5 236.5 697.5 236.5 697.5 272.011" stroke="#172C51" stroke-width="3" stroke-miterlimit="8" fill="none" fill-rule="evenodd"/><path d="M648.5 224.5 688.5 224.5 688.5 261.316 676.316 273.5 648.5 273.5Z" fill="#FFFFFF" fill-rule="evenodd"/><path d="M676.316 273.5 678.753 263.753 688.5 261.316Z" fill="#CDCDCD" fill-rule="evenodd"/><path d="M676.316 273.5 678.753 263.753 688.5 261.316 676.316 273.5 648.5 273.5 648.5 224.5 688.5 224.5 688.5 261.316" stroke="#172C51" stroke-width="3" stroke-miterlimit="8" fill="none" fill-rule="evenodd"/><path d="M593.001 247 602.962 247.006 607.546 247.013 611.654 247.022 615.126 247.033 617.804 247.045 619.546 247.058 620.169 247.071 620.779 247.084 620.75 247.084 622.472 247.097 625.142 247.108 628.609 247.119 632.713 247.128 637.255 247.133 637.25 251.133 632.705 251.128 628.597 251.119 625.124 251.108 622.442 251.096 620.706 251.084 620.083 251.07 619.474 251.057 619.502 251.057 617.786 251.045 615.113 251.033 611.645 251.022 607.54 251.013 602.959 251.006 592.999 251ZM635.257 243.132 647.252 249.141 635.248 255.132Z" fill="#4472C4"/><path d="M759 224.834C759 218.298 764.298 213 770.834 213L846.166 213C852.702 213 858 218.298 858 224.834L858 272.166C858 278.702 852.702 284 846.166 284L770.834 284C764.298 284 759 278.702 759 272.166Z" fill="#4472C4" fill-rule="evenodd"/><text fill="#FFFFFF" font-family="Yu Gothic,Yu Gothic_MSFontService,sans-serif" font-weight="700" font-size="16" transform="translate(789.32 235)">imgV</text><text fill="#FFFFFF" font-family="Yu Gothic,Yu Gothic_MSFontService,sans-serif" font-weight="700" font-size="16" transform="translate(782.82 254)">concat</text><text fill="#FFFFFF" font-family="Yu Gothic,Yu Gothic_MSFontService,sans-serif" font-weight="700" font-size="16" transform="translate(785.074 273)">16bpp</text><text font-family="Yu Gothic,Yu Gothic_MSFontService,sans-serif" font-weight="700" font-size="16" transform="translate(573.825 346)">MEM</text><text font-family="Yu Gothic,Yu Gothic_MSFontService,sans-serif" font-weight="700" font-size="16" transform="translate(614.492 346)">の</text><text font-family="Yu Gothic,Yu Gothic_MSFontService,sans-serif" font-weight="700" font-size="16" transform="translate(573.825 365)">ない領域</text><text font-family="Yu Gothic,Yu Gothic_MSFontService,sans-serif" font-weight="700" font-size="16" transform="translate(573.825 384)">(</text><text font-family="Yu Gothic,Yu Gothic_MSFontService,sans-serif" font-weight="700" font-size="16" transform="translate(580.325 384)">200x200x16bpp</text><text font-family="Yu Gothic,Yu Gothic_MSFontService,sans-serif" font-weight="700" font-size="16" transform="translate(700.158 384)">黒画像</text><text font-family="Yu Gothic,Yu Gothic_MSFontService,sans-serif" font-weight="700" font-size="16" transform="translate(748.158 384)">)</text><text font-family="Yu Gothic,Yu Gothic_MSFontService,sans-serif" font-weight="700" font-size="16" transform="translate(659.325 319)">水平連結</text><text font-family="Yu Gothic,Yu Gothic_MSFontService,sans-serif" font-weight="700" font-size="16" transform="translate(659.325 338)">画像群</text><path d="M0.00117886-2 6.63428-1.99609 13.0613-1.98504 19.0716-1.96786 24.457-1.94559 29.0097-1.91922 32.528-1.88973 34.8041-1.85802 35.4646-1.84006 35.721-1.81958 35.9249-1.80332 35.8201-1.80892 36.4148-1.79276 36.3884-1.7933 38.6457-1.76188 38.6346-1.76201 42.1422-1.73262 46.6864-1.70632 52.0659-1.68407 58.0714-1.66692 61.1261-1.66292 61.1208 2.33708 58.0599 2.33307 52.0494 2.31589 46.6632 2.29361 42.1086 2.26724 38.5956 2.23781 36.3194 2.20612 35.659 2.18819 35.4025 2.16772 35.1985 2.15142 35.3034 2.15703 34.7087 2.14086 34.7352 2.14141 32.4778 2.10996 32.4889 2.11008 28.9866 2.08071 24.4405 2.05438 19.0601 2.03212 13.0544 2.01496 6.63193 2.00391-0.00117886 2ZM59.13-5.6651 71.1235 0.348031 59.1169 6.33489Z" fill="#4472C4" transform="matrix(1 0 0 -1 688 248.348)"/><path d="M908.5 224.5 949.5 224.5 949.5 261.011 937.011 273.5 908.5 273.5Z" fill="#FFFFFF" fill-rule="evenodd"/><path d="M937.011 273.5 939.509 263.509 949.5 261.011Z" fill="#CDCDCD" fill-rule="evenodd"/><path d="M937.011 273.5 939.509 263.509 949.5 261.011 937.011 273.5 908.5 273.5 908.5 224.5 949.5 224.5 949.5 261.011" stroke="#172C51" stroke-width="3" stroke-miterlimit="8" fill="none" fill-rule="evenodd"/><path d="M858.002 246 867.107 246.01 871.299 246.021 875.055 246.036 878.23 246.054 880.686 246.074 882.291 246.095 882.874 246.118 883.43 246.139 883.379 246.138 884.953 246.159 884.943 246.159 887.388 246.179 890.555 246.196 894.305 246.211 897.595 246.218 897.587 250.218 894.29 250.211 890.533 250.196 887.356 250.179 884.905 250.159 883.3 250.137 882.718 250.115 882.161 250.093 882.212 250.094 880.638 250.073 880.649 250.074 878.208 250.054 875.039 250.036 871.288 250.021 867.102 250.01 857.998 250ZM895.6 242.215 907.591 248.233 895.582 254.215Z" fill="#4472C4"/><path d="M996 224.834C996 218.298 1001.3 213 1007.83 213L1083.17 213C1089.7 213 1095 218.298 1095 224.834L1095 272.166C1095 278.702 1089.7 284 1083.17 284L1007.83 284C1001.3 284 996 278.702 996 272.166Z" fill="#4472C4" fill-rule="evenodd"/><text fill="#FFFFFF" font-family="Yu Gothic,Yu Gothic_MSFontService,sans-serif" font-weight="700" font-size="16" transform="translate(1018.93 245)">depth2</text><text fill="#FFFFFF" font-family="Yu Gothic,Yu Gothic_MSFontService,sans-serif" font-weight="700" font-size="16" transform="translate(1034.43 264)">ply</text><path d="M979.002 141 987.588 141.009 991.542 141.02 995.084 141.034 998.078 141.05 1000.39 141.069 1001.91 141.089 1002.46 141.11 1002.98 141.13 1002.93 141.129 1004.42 141.148 1004.41 141.148 1006.71 141.167 1009.7 141.183 1013.24 141.197 1015.77 141.201 1015.76 145.201 1013.22 145.197 1009.68 145.183 1006.68 145.166 1004.37 145.148 1002.86 145.128 1002.31 145.107 1001.78 145.087 1001.83 145.088 1000.35 145.068 1000.36 145.068 998.056 145.05 995.068 145.034 991.531 145.02 987.584 145.009 978.998 145ZM1013.78 137.198 1025.77 143.217 1013.76 149.198Z" fill="#4472C4"/><path d="M1143.5 226.5 1184.5 226.5 1184.5 262.011 1172.01 274.5 1143.5 274.5Z" fill="#FFFFFF" fill-rule="evenodd"/><path d="M1172.01 274.5 1174.51 264.509 1184.5 262.011Z" fill="#CDCDCD" fill-rule="evenodd"/><path d="M1172.01 274.5 1174.51 264.509 1184.5 262.011 1172.01 274.5 1143.5 274.5 1143.5 226.5 1184.5 226.5 1184.5 262.011" stroke="#172C51" stroke-width="3" stroke-miterlimit="8" fill="none" fill-rule="evenodd"/><path d="M1095.01 247 1103.75 247.042 1107.78 247.09 1111.4 247.152 1114.46 247.226 1116.84 247.309 1118.48 247.404 1119.12 247.513 1119.66 247.603 1119.44 247.579 1120.95 247.666 1120.9 247.664 1123.25 247.746 1123.23 247.745 1126.27 247.819 1126.26 247.819 1129.86 247.881 1129.84 247.88 1132.59 247.903 1132.56 251.903 1129.8 251.88 1126.18 251.818 1123.12 251.744 1120.74 251.661 1119.1 251.566 1118.46 251.457 1117.92 251.366 1118.14 251.391 1116.63 251.304 1116.67 251.306 1114.33 251.224 1114.35 251.224 1111.31 251.151 1111.32 251.151 1107.72 251.089 1107.73 251.089 1103.71 251.042 1103.73 251.042 1094.99 251ZM1130.62 243.889 1142.58 249.97 1130.54 255.889Z" fill="#4472C4"/><text font-family="Yu Gothic,Yu Gothic_MSFontService,sans-serif" font-weight="700" font-size="16" transform="translate(906.253 296)">垂直連結</text><text font-family="Yu Gothic,Yu Gothic_MSFontService,sans-serif" font-weight="700" font-size="16" transform="translate(906.253 315)">画像群</text><text font-family="Yu Gothic,Yu Gothic_MSFontService,sans-serif" font-weight="700" font-size="16" transform="translate(1137.07 299)">密な</text><text font-family="Yu Gothic,Yu Gothic_MSFontService,sans-serif" font-weight="700" font-size="16" transform="translate(1169.07 299)">ply</text><text font-family="Yu Gothic,Yu Gothic_MSFontService,sans-serif" font-weight="700" font-size="16" transform="translate(1137.07 318)">(</text><text font-family="Yu Gothic,Yu Gothic_MSFontService,sans-serif" font-weight="700" font-size="16" transform="translate(1143.57 318)">数</text><text font-family="Yu Gothic,Yu Gothic_MSFontService,sans-serif" font-weight="700" font-size="16" transform="translate(1159.57 318)">GB)</text><path d="M467.5 187.5C467.5 178.94 473.224 172 480.285 172L661.215 172C668.276 172 674 165.06 674 156.5 674 165.06 679.724 172 686.785 172L867.715 172C874.776 172 880.5 178.94 880.5 187.5" stroke="#4472C4" stroke-width="3" stroke-miterlimit="8" fill="none" fill-rule="evenodd"/><text font-family="Yu Gothic,Yu Gothic_MSFontService,sans-serif" font-weight="700" font-size="16" transform="translate(575.237 147)">50mMap_sample_batch.bat</text><path d="M1184.5 361.5 1165.5 380.5 1146.5 361.5 1156 361.5 1156 332.5 1175 332.5 1175 361.5Z" stroke="#0070C0" stroke-width="3" stroke-miterlimit="8" fill="#FFFFFF" fill-rule="evenodd"/><text font-family="Yu Gothic,Yu Gothic_MSFontService,sans-serif" font-weight="700" font-size="16" transform="translate(1131.45 405)">decimate</text><text font-family="Yu Gothic,Yu Gothic_MSFontService,sans-serif" font-weight="700" font-size="16" transform="translate(1131.45 424)">または</text><text font-family="Yu Gothic,Yu Gothic_MSFontService,sans-serif" font-weight="700" font-size="16" transform="translate(1131.45 443)">Blender</text><text font-family="Yu Gothic,Yu Gothic_MSFontService,sans-serif" font-weight="700" font-size="16" transform="translate(1131.45 462)">で間引く</text><path d="M934.764 510.351 929.913 503.673 930.306 504.136 924.576 498.345 925 498.718 918.458 493.752 918.878 494.031 911.589 489.828 911.978 490.024 904.01 486.521 904.352 486.653 895.772 483.786 896.065 483.872 886.939 481.58 887.184 481.633 877.578 479.853 877.78 479.885 867.761 478.554 867.925 478.573 857.559 477.628 857.74 477.641 836.237 476.661 836.385 476.665 814.295 476.482 814.348 476.482 792.185 476.593 770.456 476.498 759.875 476.214 749.594 475.688 739.662 474.853 730.14 473.641 721.086 471.983 712.559 469.802 704.619 467.017 697.333 463.539 690.784 459.277 684.862 453.954 679.719 445.013 686.654 441.025 691.478 449.412 690.685 448.431 695.9 453.12 695.408 452.742 701.475 456.69 701.017 456.433 707.87 459.704 707.471 459.539 715.043 462.195 714.71 462.094 722.934 464.198 722.664 464.139 731.474 465.753 731.258 465.719 740.587 466.906 740.417 466.888 750.199 467.71 750.068 467.702 760.235 468.222 760.138 468.218 770.625 468.5 770.535 468.498 792.201 468.593 792.164 468.593 814.335 468.482 836.526 468.666 858.195 469.653 868.733 470.613 878.935 471.968 888.765 473.79 898.162 476.15 907.062 479.124 915.397 482.789 923.093 487.227 930.063 492.517 936.206 498.725 941.236 505.649ZM673.013 450.535 677 424 695.835 443.111Z" fill="#0070C0"/><text font-family="Yu Gothic,Yu Gothic_MSFontService,sans-serif" font-weight="700" font-size="16" transform="translate(714.322 437)">layout.png</text><text font-family="Yu Gothic,Yu Gothic_MSFontService,sans-serif" font-weight="700" font-size="16" transform="translate(795.655 437)">を眺めて</text><text font-family="Yu Gothic,Yu Gothic_MSFontService,sans-serif" font-weight="700" font-size="16" transform="translate(714.322 456)">どう連結するか決める</text><path d="M880 118.834C880 112.298 885.298 107 891.834 107L967.166 107C973.702 107 979 112.298 979 118.834L979 166.166C979 172.702 973.702 178 967.166 178L891.834 178C885.298 178 880 172.702 880 166.166Z" fill="#4472C4" fill-rule="evenodd"/><text fill="#FFFFFF" font-family="Yu Gothic,Yu Gothic_MSFontService,sans-serif" font-weight="700" font-size="16" transform="translate(895.582 139)">50mMap</text><text fill="#FFFFFF" font-family="Yu Gothic,Yu Gothic_MSFontService,sans-serif" font-weight="700" font-size="16" transform="translate(896.495 158)">spherize</text><path d="M926 224.094 926.03 215.625 926.065 211.721 926.11 208.223 926.163 205.261 926.223 202.962 926.29 201.4 926.366 200.8 926.431 200.282 926.418 200.446 926.481 198.983 926.48 199.018 926.539 196.744 926.539 196.76 926.592 193.811 926.591 193.822 926.636 190.333 926.636 190.347 926.649 187.988 930.649 188.011 930.636 190.377 930.591 193.878 930.538 196.84 930.478 199.139 930.41 200.702 930.335 201.301 930.269 201.819 930.283 201.655 930.22 203.118 930.221 203.084 930.162 205.357 930.162 205.341 930.109 208.29 930.109 208.28 930.065 211.769 930.065 211.761 930.03 215.655 930.03 215.644 930 224.108ZM922.639 189.969 928.701 178 934.639 190.031Z" fill="#4472C4"/><path d="M1025.5 119.5 1066.5 119.5 1066.5 155.011 1054.01 167.5 1025.5 167.5Z" fill="#FFFFFF" fill-rule="evenodd"/><path d="M1054.01 167.5 1056.51 157.509 1066.5 155.011Z" fill="#CDCDCD" fill-rule="evenodd"/><path d="M1054.01 167.5 1056.51 157.509 1066.5 155.011 1054.01 167.5 1025.5 167.5 1025.5 119.5 1066.5 119.5 1066.5 155.011" stroke="#172C51" stroke-width="3" stroke-miterlimit="8" fill="none" fill-rule="evenodd"/><path d="M0.00113322-2 8.47526-1.9952 12.376-1.98968 15.8706-1.98253 18.8246-1.97406 21.1035-1.96459 22.5872-1.95436 23.1188-1.94364 23.6371-1.93322 23.6107-1.93358 25.0756-1.92349 27.3464-1.91408 30.2963-1.90563 33.7879-1.89849 36.1588-1.89634 36.1551 2.10366 33.7798 2.1015 30.2848 2.09435 27.3298 2.08589 25.0481 2.07642 23.5699 2.06624 23.0382 2.05555 22.5198 2.0451 22.5464 2.04546 21.0869 2.03537 18.8132 2.02593 15.8624 2.01746 12.3703 2.01031 8.47299 2.0048-0.00113322 2ZM34.1618-5.89797 46.157 0.111811 34.1521 6.10203Z" fill="#4472C4" transform="matrix(1.83697e-16 1 1 -1.83697e-16 1046 167)"/><text font-family="Yu Gothic,Yu Gothic_MSFontService,sans-serif" font-weight="700" font-size="16" transform="translate(1014.41 72)">地球</text><text font-family="Yu Gothic,Yu Gothic_MSFontService,sans-serif" font-weight="700" font-size="16" transform="translate(1046.41 72)">の丸み</text><text font-family="Yu Gothic,Yu Gothic_MSFontService,sans-serif" font-weight="700" font-size="16" transform="translate(1014.41 91)">を付加</text><text font-family="Yu Gothic,Yu Gothic_MSFontService,sans-serif" font-weight="700" font-size="16" transform="translate(1014.41 110)">(</text><text font-family="Yu Gothic,Yu Gothic_MSFontService,sans-serif" font-weight="700" font-size="16" transform="translate(1020.91 110)">されているか？</text><text font-family="Yu Gothic,Yu Gothic_MSFontService,sans-serif" font-weight="700" font-size="16" transform="translate(1132.91 110)">)</text><rect x="467.5" y="199.5" width="413" height="219" stroke="#4472C4" stroke-width="3" stroke-linecap="square" stroke-miterlimit="8" stroke-dasharray="9 3" fill="none"/></g></svg>